<svg width="32" height="32" viewBox="0 0 32 32" fill="none" xmlns="http://www.w3.org/2000/svg">
<g clip-path="url(#clip0_2231_85)">
<rect opacity="0.5" width="32" height="32" fill="#ADA8A8"/>
<path d="M27.52 23.899H22.948C20.516 23.899 19.584 21.449 19.346 18.724C19.218 16.896 18.834 15.762 16.951 15.762H15.909V19.858C15.909 20.681 16.091 20.918 16.603 20.918H17.627V23.898H8.12V20.918H9.144C9.674 20.918 9.838 20.681 9.838 19.858V8.46701C9.838 7.68101 9.655 7.44301 9.144 7.44301H8.12V4.46301H19.236C23.881 4.46301 26.386 6.03501 26.386 9.87501C26.386 12.398 24.978 13.861 22.345 14.501C24.978 15.195 25.91 16.878 26.056 19.602C26.111 20.572 26.386 20.919 27.116 20.919H27.519V23.899H27.52Z" fill="white"/>
<path d="M27.519 19.456C27.428 17.993 27.117 16.073 25.654 14.666C26.404 13.916 26.404 13.916 26.404 13.897C27.354 12.855 27.848 11.502 27.848 9.875C27.848 6.748 26.348 3 19.236 3H7.516L3 7.516V12.563H4.719V22.235L3 23.954V29H14.592L16.037 27.537C16.877 28.488 18.011 29 19.309 29H24.484L29 24.484V19.456H27.519ZM27.519 23.899H22.948C20.516 23.899 19.584 21.449 19.346 18.724C19.218 16.896 18.834 15.762 16.951 15.762H15.909V19.858C15.909 20.681 16.091 20.918 16.603 20.918H17.627V23.898H8.12V20.918H9.143C9.673 20.918 9.838 20.681 9.838 19.858V8.467C9.838 7.681 9.655 7.443 9.143 7.443H8.12V4.463H19.236C23.88 4.463 26.386 6.035 26.386 9.875C26.386 12.398 24.977 13.861 22.345 14.501C24.978 15.195 25.91 16.878 26.056 19.602C26.111 20.571 26.386 20.918 27.116 20.918H27.519V23.899Z" fill="#171414"/>
<path d="M17.425 7.47998H15.908V13.24H17.078C19.363 13.24 20.278 12.453 20.278 10.277C20.259 8.22998 19.437 7.47998 17.425 7.47998Z" fill="#171414"/>
</g>
<defs>
<clipPath id="clip0_2231_85">
<rect width="32" height="32" fill="white"/>
</clipPath>
</defs>
</svg>
